<svg xmlns="http://www.w3.org/2000/svg" xmlns:xlink="http://www.w3.org/1999/xlink" width="85" height="77" viewBox="0 0 85 77">
    <defs>
        <path id="a" d="M0 76.172h83.624V.799H0z"/>
    </defs>
    <g fill="none" fill-rule="evenodd">
        <g transform="translate(1 .029)">
            <path stroke="#333" stroke-width="2.5" d="M31.207 64.345H1.035V1.835H82.59v62.51h-10.81"/>
            <mask id="b" fill="#fff">
                <use xlink:href="#a"/>
            </mask>
            <path stroke="#333" stroke-width="2.5" d="M1.035 9.7h81.554V1.835H1.035zM3.933 5.7h2.559" mask="url(#b)"/>
        </g>
        <path stroke="#333" stroke-width="2.5" d="M9.363 5.728h2.56M13.792 5.728h2.56"/>
        <g stroke-width="2.5">
            <path stroke="#0082CA" d="M61.105 51.82a8.989 8.989 0 0 1-8.991 8.991 8.991 8.991 0 0 1 0-17.982 8.99 8.99 0 0 1 8.99 8.991zm15.267 2.362v-6.556l-3.91-.839a20.338 20.338 0 0 0-.731-2.356l2.936-2.652-3.28-5.678-4.051 1.309a21.706 21.706 0 0 0-1.629-1.555l1.28-3.964-5.679-3.278-2.887 3.196a21.37 21.37 0 0 0-2.153-.555l-.876-4.086h-6.557l-.876 4.087a20.77 20.77 0 0 0-2.278.6l-2.692-2.98-5.68 3.279 1.201 3.71a21.053 21.053 0 0 0-1.877 1.83l-3.53-1.14-3.282 5.677 2.616 2.363c-.34.93-.636 1.88-.845 2.865l-3.215.688v6.558l3.077.66c.188 1.103.458 2.176.811 3.214l-2.182 1.97 3.278 5.681 2.728-.882a20.986 20.986 0 0 0 2.51 2.507l-.834 2.584 5.677 3.28 1.868-2.07a20.49 20.49 0 0 0 3.479.863l.568 2.65 6.557.003.608-2.835c1.14-.246 2.243-.59 3.307-1.012l1.933 2.14 5.678-3.28-.992-3.065a21.105 21.105 0 0 0 2.137-2.324l3.063.99 3.282-5.68-2.68-2.422c.257-.889.45-1.803.59-2.738l3.532-.757z"/>
            <path stroke="#FF8300" stroke-linecap="round" stroke-linejoin="bevel" d="M19.707 31.718a3.5 3.5 0 1 1-.001-6.999 3.5 3.5 0 0 1 0 7zm11.806-5.538l-4.004-.943 2.262-3.653-3.157-3.157-3.5 2.165-.983-4.18h-4.464l-.942 4.005-3.652-2.262-3.157 3.157 2.165 3.497-4.181.985v4.463l4.005.944-2.261 3.653L12.8 38.01l3.498-2.166.983 4.18h4.464l.943-4.005 3.653 2.262 3.155-3.158-2.164-3.495 4.182-.986-.002-4.463z"/>
        </g>
    </g>
</svg>
