<svg xmlns="http://www.w3.org/2000/svg" width="149.121" height="24.552" viewBox="0 0 149.121 24.552">
  <g id="logo" transform="translate(-121.264 -303.723)">
    <path id="Trazado_1" data-name="Trazado 1" d="M9.392,9.943H4.9V-10.318H.264v-3.959H14.031v3.959H9.392Zm19.367,0L26.92-.775,26.274-5.3h-.066q-.249,2.2-.4,3.189t-2.1,12.052H18.04L14.362-8.512h4.423L20.475,1.66q.3,1.69.547,4.953h.1q.033-.878.232-2.676t.282-2.311L23.457-8.512h5.666L30.929,1.66a44.789,44.789,0,0,1,.547,4.953h.066q.232-2.965.58-4.953L33.878-8.512h4.307L34.491,9.943ZM54.073.682a11.447,11.447,0,0,1-1.922,7.066,6.7,6.7,0,0,1-9.012,1.367,7.343,7.343,0,0,1-2.5-3.338A13.572,13.572,0,0,1,39.759.682a11.427,11.427,0,0,1,1.905-7.016A6.247,6.247,0,0,1,46.949-8.86a6.157,6.157,0,0,1,5.194,2.576A11.361,11.361,0,0,1,54.073.682Zm-9.808,0a11.6,11.6,0,0,0,.63,4.357,2.109,2.109,0,0,0,2.021,1.474q2.651,0,2.651-5.832a11.19,11.19,0,0,0-.638-4.332,2.11,2.11,0,0,0-2.013-1.433A2.105,2.105,0,0,0,44.895-3.65,11.324,11.324,0,0,0,44.265.682Z" transform="translate(121 318)" fill="#ff4e60"/>
    <path id="Trazado_2" data-name="Trazado 2" d="M9.392,9.943H4.9V-10.318H.264v-3.959H14.031v3.959H9.392ZM28.858.682a11.447,11.447,0,0,1-1.922,7.066,6.258,6.258,0,0,1-5.268,2.526,6.277,6.277,0,0,1-3.744-1.16,7.343,7.343,0,0,1-2.5-3.338A13.572,13.572,0,0,1,14.544.682a11.427,11.427,0,0,1,1.905-7.016A6.247,6.247,0,0,1,21.734-8.86a6.157,6.157,0,0,1,5.194,2.576A11.361,11.361,0,0,1,28.858.682Zm-9.808,0a11.6,11.6,0,0,0,.63,4.357A2.109,2.109,0,0,0,21.7,6.514q2.651,0,2.651-5.832a11.19,11.19,0,0,0-.638-4.332A2.11,2.11,0,0,0,21.7-5.083,2.105,2.105,0,0,0,19.68-3.65,11.324,11.324,0,0,0,19.05.682ZM44.812,9.943,42.973-.775,42.327-5.3h-.066q-.249,2.2-.4,3.189t-2.1,12.052H34.093L30.415-8.512h4.423L36.528,1.66q.3,1.69.547,4.953h.1q.033-.878.232-2.676t.282-2.311L39.51-8.512h5.666L46.982,1.66a44.789,44.789,0,0,1,.547,4.953H47.6q.232-2.965.58-4.953L49.931-8.512h4.307L50.544,9.943Zm18.455.331a6.651,6.651,0,0,1-5.459-2.46q-2-2.46-2-6.966a12.257,12.257,0,0,1,1.806-7.14A5.811,5.811,0,0,1,62.654-8.86a5.739,5.739,0,0,1,4.755,2.2A9.683,9.683,0,0,1,69.149-.51V1.842H60.285A6.02,6.02,0,0,0,61.3,5.512a3.208,3.208,0,0,0,2.651,1.2,8.59,8.59,0,0,0,4.407-1.342V9A9.687,9.687,0,0,1,63.267,10.275ZM62.621-5.464a1.8,1.8,0,0,0-1.557,1,6.743,6.743,0,0,0-.712,3.106h4.473a6.681,6.681,0,0,0-.613-3.065A1.766,1.766,0,0,0,62.621-5.464Zm17.312-3.4a5.2,5.2,0,0,1,1.59.249L81.01-4.337A3.667,3.667,0,0,0,79.8-4.5a2.805,2.805,0,0,0-2.468,1.267A6.553,6.553,0,0,0,76.471.451V9.943H72.064V-8.512h3.628l.5,2.883h.149a6.693,6.693,0,0,1,1.59-2.485A2.969,2.969,0,0,1,79.934-8.86ZM93.4,4.543A5.563,5.563,0,0,1,91.82,8.759a6.494,6.494,0,0,1-4.664,1.516A8.65,8.65,0,0,1,82.634,9.2V5.371a8.59,8.59,0,0,0,2.129,1.044,6.785,6.785,0,0,0,2.145.414,2.206,2.206,0,0,0,1.566-.505,1.743,1.743,0,0,0,.538-1.334,2.141,2.141,0,0,0-.563-1.474,9.592,9.592,0,0,0-2.071-1.541A8.5,8.5,0,0,1,83.5-.568a5.759,5.759,0,0,1-.87-3.189,4.641,4.641,0,0,1,1.615-3.728A6.619,6.619,0,0,1,88.681-8.86,8.887,8.887,0,0,1,93.3-7.568L91.862-4.4a6.739,6.739,0,0,0-3.115-.961,1.664,1.664,0,0,0-1.267.447,1.533,1.533,0,0,0-.422,1.093A1.925,1.925,0,0,0,87.579-2.5a9.155,9.155,0,0,0,1.947,1.441A12.41,12.41,0,0,1,91.944.716a5.29,5.29,0,0,1,1.077,1.657A5.686,5.686,0,0,1,93.4,4.543Z" transform="translate(176.983 318)" fill="#000865"/>
  </g>
</svg>
